<svg width="788" height="357" viewBox="0 0 788 357" fill="none" xmlns="http://www.w3.org/2000/svg">
<path d="M299.294 296.055C299.294 294.369 300.305 293.526 302.16 293.526C304.182 293.526 305.025 294.369 305.025 296.055V297.067C305.025 306.17 312.106 311.901 325.423 311.901C338.403 311.901 344.472 307.013 345.315 299.932C345.989 292.515 341.101 289.481 334.189 287.458L313.454 280.883C304.857 278.186 300.474 273.466 300.642 265.037C300.811 254.585 309.408 249.191 324.58 249.191C342.618 249.191 349.361 256.777 349.361 266.217V267.229C349.361 268.746 348.518 269.589 346.495 269.589C344.472 269.589 343.629 268.577 343.629 267.229V266.554C343.629 259.137 336.212 254.248 324.917 254.248C314.297 254.248 306.374 257.283 306.205 264.869C306.205 271.274 310.251 273.972 316.489 275.995L338.235 282.906C348.181 286.109 351.384 291.841 350.878 299.595C350.204 309.71 342.786 316.959 325.592 316.959C303.34 316.959 299.125 304.99 299.125 298.078V296.055H299.294Z" fill="#946045"/>
<path d="M370.941 291.167V274.815C370.941 256.609 385.101 249.023 399.936 249.023C414.771 249.023 428.931 256.777 428.931 274.815V291.167C428.931 309.204 414.771 317.127 399.936 317.127C384.933 317.127 370.941 309.373 370.941 291.167ZM423.031 289.987V276.332C423.031 259.474 410.219 254.586 399.768 254.586C389.316 254.586 376.673 259.306 376.673 276.332V289.987C376.673 306.844 389.316 311.733 399.768 311.733C410.219 311.564 423.031 306.844 423.031 289.987Z" fill="#946045"/>
<path d="M450.843 252.563C450.843 250.203 452.023 249.023 454.215 249.023C456.238 249.023 457.081 249.528 458.092 251.72L482.536 307.181L506.979 251.72C507.822 249.697 508.834 249.023 510.688 249.023C513.048 249.023 514.228 250.034 514.228 252.563V314.43C514.228 316.285 513.385 317.127 511.362 317.127C509.339 317.127 508.497 316.285 508.497 314.43V280.884C508.497 274.309 508.497 266.723 509.171 260.486H508.834L485.907 313.082C485.064 314.767 484.222 315.273 482.536 315.273C480.681 315.273 479.839 314.599 479.164 313.082L456.238 260.486H455.901C456.575 266.723 456.575 274.309 456.575 280.884V314.43C456.575 316.285 455.732 317.127 453.709 317.127C451.686 317.127 450.843 316.285 450.843 314.43V252.563Z" fill="#946045"/>
<path d="M538.335 314.43V251.888C538.335 250.034 539.009 249.191 541.201 249.191C543.392 249.191 544.067 250.034 544.067 251.888V314.43C544.067 316.284 543.392 317.127 541.201 317.127C539.009 317.127 538.335 316.284 538.335 314.43Z" fill="#946045"/>
<path d="M568.003 254.249C568.003 251.383 569.183 250.035 572.386 250.035H594.807C610.148 250.035 618.914 258.295 618.914 275.321V291.336C618.914 307.688 610.485 316.454 594.807 316.454H572.386C569.183 316.454 568.003 315.105 568.003 312.239V254.249ZM573.904 310.891H594.807C604.753 310.891 613.013 306.002 613.013 289.819V276.838C613.013 259.981 604.585 255.598 594.807 255.598H573.904V310.891Z" fill="#946045"/>
<path d="M693.765 313.587C694.608 315.441 693.934 316.453 691.911 316.959C689.888 317.464 689.045 316.79 688.202 314.936L681.797 299.595H647.744L641.001 315.947C640.495 317.296 639.147 317.633 637.292 316.79C635.775 316.116 635.101 314.936 635.775 313.419L661.905 251.383C662.579 249.697 663.085 249.191 664.77 249.191C666.625 249.191 666.962 249.697 667.636 251.383L693.765 313.587ZM649.936 294.201H679.436L671.682 275.489C669.828 271.275 667.13 264.532 664.939 258.8H664.77C662.579 264.363 659.713 271.106 657.859 275.489L649.936 294.201Z" fill="#946045"/>
<path d="M713.319 252.563C713.319 250.203 714.499 249.023 716.691 249.023C718.714 249.023 719.556 249.528 720.568 251.72L745.011 307.181L769.455 251.72C770.298 249.697 771.309 249.023 773.164 249.023C775.524 249.023 776.704 250.034 776.704 252.563V314.43C776.704 316.285 775.861 317.127 773.838 317.127C771.815 317.127 770.972 316.285 770.972 314.43V280.884C770.972 274.309 771.141 266.723 771.646 260.486H771.309L748.383 313.082C747.54 314.767 746.697 315.273 745.011 315.273C743.326 315.273 742.314 314.599 741.64 313.082L718.714 260.486H718.376C719.051 266.723 719.051 274.309 719.051 280.884V314.43C719.051 316.285 718.208 317.127 716.185 317.127C714.162 317.127 713.319 316.285 713.319 314.43V252.563Z" fill="#946045"/>
<path d="M411.397 156.475C415.275 156.475 416.96 158.498 416.96 163.049C416.96 167.601 415.275 169.624 411.397 169.624H293.732C289.854 169.624 288 167.601 288 163.049C288 158.498 289.854 156.475 293.732 156.475H345.316V125.457C345.316 121.074 347.676 119.051 352.564 119.051C357.453 119.051 359.813 121.074 359.813 125.457V156.475H411.397ZM305.195 121.411C300.643 123.939 298.115 123.939 295.08 119.894C292.046 115.679 292.383 112.139 296.092 109.948L345.316 81.7955V47.9118C345.316 43.5288 347.676 41.6745 352.564 41.6745C357.453 41.6745 359.813 43.5288 359.813 47.9118V81.7955L409.037 109.948C412.746 112.139 412.915 115.679 409.88 119.894C407.014 124.108 404.317 123.939 399.766 121.411L352.564 94.1015L305.195 121.411Z" fill="#946045"/>
<path d="M555.196 162.712C555.196 167.432 552.835 169.287 548.284 169.287H482.033C477.482 169.287 475.122 167.432 475.122 162.712V51.6203C475.122 46.9002 477.482 44.8773 482.033 44.8773H548.284C552.835 44.8773 555.196 46.9002 555.196 51.6203V162.712ZM489.451 156.306H540.867V58.0262H489.451V156.306ZM577.448 167.095V47.4059C577.448 43.0229 579.976 41 584.865 41C589.585 41 592.114 43.0229 592.114 47.4059V167.095C592.114 171.478 589.585 173.501 584.865 173.501C579.976 173.501 577.448 171.647 577.448 167.095Z" fill="#946045"/>
<path d="M729.673 110.285H664.433C660.05 110.285 657.859 108.262 657.859 104.047V52.1259C657.859 47.5743 660.05 45.5514 664.433 45.5514H726.638C730.347 45.5514 732.201 47.5743 732.201 52.1259C732.201 56.5089 730.347 58.7004 726.638 58.7004H672.188V97.1357H729.673C733.55 97.1357 735.404 99.3272 735.404 103.71C735.404 108.262 733.55 110.285 729.673 110.285ZM761.702 121.411C766.591 121.411 768.445 123.265 768.445 128.154V166.758C768.445 171.309 766.591 173.332 762.039 173.332H671.682C667.299 173.332 665.276 171.309 665.276 166.758V128.154C665.276 123.265 667.299 121.411 672.188 121.411H761.702ZM754.622 160.689V134.222H679.268V160.52H754.622V160.689ZM782.268 70.3321C786.314 70.3321 788 72.6922 788 77.0752C788 81.6267 786.314 83.9868 782.268 83.9868H768.614V109.61C768.614 113.993 766.422 115.848 761.365 115.848C756.645 115.848 754.116 113.993 754.116 109.61V47.4058C754.116 43.0228 756.645 41.1685 761.365 41.1685C766.254 41.1685 768.614 43.0228 768.614 47.4058V70.3321H782.268Z" fill="#946045"/>
<path d="M200.4 48.9C200.7 48.7 200.9 48.5 201 48.1C201.1 47.8 201.1 47.4 200.9 47.1C200 45.5 198.9 44.2 197.6 43.2C196.3 42.2 194.8 41.6 193.2 41.4C191.6 41.2 189.9 41.4 188.1 41.9C187.7 42 187.5 42.3 187.3 42.6C187.2 42.9 187.2 43.3 187.3 43.7C188.1 45.3 189.3 46.6 190.6 47.6C193.5 49.8 197.3 50.4 200.4 48.9Z" fill="#946045"/>
<path d="M206 59.2C206.3 59 206.5 58.8 206.6 58.4C206.7 58.1 206.7 57.7 206.5 57.4C205.6 55.8 204.5 54.5 203.2 53.5C201.9 52.5 200.4 51.9 198.8 51.7C197.2 51.5 195.5 51.7 193.7 52.2C193.3 52.3 193.1 52.6 192.9 52.9C192.8 53.2 192.8 53.6 192.9 54C193.7 55.6 194.9 56.9 196.2 57.9C199.1 60.1 202.9 60.8 206 59.2Z" fill="#946045"/>
<path d="M210.8 69.2C211.1 69 211.3 68.8 211.4 68.4C211.5 68.1 211.5 67.7 211.3 67.4C210.4 65.8 209.3 64.5 208 63.5C206.7 62.5 205.2 61.9 203.6 61.7C202 61.5 200.3 61.7 198.5 62.2C198.1 62.3 197.9 62.6 197.7 62.9C197.6 63.2 197.6 63.6 197.7 64C198.5 65.6 199.7 66.9 201 67.9C203.9 70.1 207.7 70.7 210.8 69.2Z" fill="#946045"/>
<path d="M216.9 78.5C217.2 78.3 217.4 78 217.4 77.7C217.4 77.4 217.4 77 217.1 76.7C216.3 75.7 215.5 74.9 214.6 74.2C213 73 211.3 72.3 209.4 72.2C207.5 72.1 205.6 72.5 203.6 73.5C203.3 73.7 203 74 202.9 74.3C202.8 74.7 202.9 75 203.1 75.3C203.8 76.3 204.6 77.1 205.5 77.8C209 80.4 213.6 80.8 216.9 78.5Z" fill="#946045"/>
<path d="M220 88.5C220.3 88.3 220.5 88 220.5 87.7C220.5 87.4 220.5 87 220.2 86.7C219.4 85.7 218.6 84.9 217.7 84.2C216.1 83 214.4 82.3 212.5 82.2C210.6 82.1 208.7 82.5 206.7 83.5C206.4 83.7 206.1 84 206 84.3C205.9 84.7 206 85 206.2 85.3C206.9 86.3 207.7 87.1 208.6 87.8C212.1 90.4 216.7 90.8 220 88.5Z" fill="#946045"/>
<path d="M222.6 94.5C221 93.3 219.3 92.6 217.4 92.5C215.5 92.4 213.6 92.8 211.6 93.8C211.3 94 211 94.3 210.9 94.6C210.8 95 210.9 95.3 211.1 95.6C211.8 96.6 212.6 97.4 213.5 98.1C217 100.7 221.6 101.1 224.8 98.8C225.1 98.6 225.3 98.3 225.3 98C225.3 97.7 225.3 97.3 225 97C224.3 96 223.5 95.2 222.6 94.5Z" fill="#946045"/>
<path d="M206.8 42.5C207.2 42.5 207.5 42.4 207.8 42.2C208.6 41.4 209.4 40.6 210.1 39.7C211.2 38.3 212 36.7 212.3 35C212.7 33.2 212.6 31.3 212.1 29.2C212 28.8 211.8 28.6 211.4 28.4C211.1 28.2 210.7 28.2 210.4 28.4C208.7 29.2 207.3 30.3 206.2 31.7C204 34.6 203.6 38.7 206 42C206.1 42.3 206.4 42.5 206.8 42.5Z" fill="#946045"/>
<path d="M211.5 42.4C210.4 43.9 209.7 45.6 209.7 47.4C209.6 49.2 210.1 51.1 211.3 52.7C211.5 53 211.8 53.2 212.2 53.2C212.6 53.2 212.9 53.1 213.2 52.9C214 52.1 214.8 51.3 215.5 50.5C216.6 49.1 217.4 47.5 217.7 45.7C218.1 43.9 218 42 217.5 39.9C217.4 39.5 217.2 39.3 216.8 39.1C216.5 38.9 216.1 38.9 215.8 39.1C214 39.9 212.5 41 211.5 42.4Z" fill="#946045"/>
<path d="M215.6 58.2C215.5 60 216 61.9 217.2 63.5C217.4 63.8 217.7 64 218.1 64C218.5 64 218.8 63.9 219.1 63.7C219.9 62.9 220.7 62.1 221.4 61.3C222.5 59.9 223.3 58.3 223.6 56.5C224 54.7 223.9 52.8 223.4 50.7C223.3 50.3 223.1 50.1 222.7 49.9C222.4 49.7 222 49.7 221.7 49.9C220 50.7 218.6 51.8 217.5 53.2C216.4 54.7 215.7 56.4 215.6 58.2Z" fill="#946045"/>
<path d="M222.6 64.5C220.7 67 220.2 70.4 221.8 73.6C222 73.9 222.2 74.2 222.6 74.3C222.9 74.4 223.3 74.3 223.6 74.1C225.1 73.1 226.5 71.9 227.5 70.5C229.2 68.2 230.1 65.3 229.7 61.9C229.7 61.5 229.5 61.2 229.2 61C228.9 60.8 228.5 60.7 228.2 60.8C225.8 61.5 223.9 62.8 222.6 64.5Z" fill="#946045"/>
<path d="M226.5 74.2C224.6 76.7 224.1 80.1 225.7 83.3C225.9 83.6 226.1 83.9 226.5 84C226.8 84.1 227.2 84 227.5 83.8C229 82.8 230.4 81.6 231.4 80.2C233.1 77.9 234 75 233.6 71.6C233.6 71.2 233.4 70.9 233.1 70.7C232.8 70.5 232.4 70.4 232.1 70.5C229.7 71.2 227.8 72.5 226.5 74.2Z" fill="#946045"/>
<path d="M230.2 83.9C228.3 86.4 227.8 89.8 229.4 93C229.6 93.3 229.9 93.6 230.2 93.7C230.5 93.8 230.9 93.7 231.2 93.5C232.7 92.5 234.1 91.3 235.1 89.9C236.8 87.6 237.7 84.7 237.3 81.3C237.3 80.9 237.1 80.6 236.8 80.4C236.5 80.2 236.1 80.1 235.8 80.2C233.5 80.8 231.5 82.2 230.2 83.9Z" fill="#946045"/>
<path d="M201.6 40.5C201.2 39.9 200.4 39.7 199.7 40C199.1 40.4 198.9 41.2 199.2 41.9C199.2 41.9 199.7 42.7 200.5 44.2C206.6 54.7 225.6 82.5 234.3 125.5C234.4 126.2 235.2 126.7 235.9 126.6C236.6 126.5 237.1 125.7 237 125C227 75.2 201.6 40.5 201.6 40.5Z" fill="#946045"/>
<mask id="mask0_4_95" style="mask-type:luminance" maskUnits="userSpaceOnUse" x="2" y="2" width="239" height="353">
<path d="M184.2 20.3C166 9 144.5 2.5 121.5 2.5C55.8 2.5 2.5 55.8 2.5 121.5V235.5C2.5 301.2 55.8 354.5 121.5 354.5C187.2 354.5 240.5 301.2 240.5 235.5V150.2" fill="white"/>
</mask>
<g mask="url(#mask0_4_95)">
<mask id="mask1_4_95" style="mask-type:luminance" maskUnits="userSpaceOnUse" x="103" y="189" width="269" height="112">
<path d="M103.2 256.5C103.2 256.5 145.6 275.9 194.1 300.9L371.6 293.4L367.7 189.5L195.6 192.5L103.2 256.5Z" fill="white"/>
</mask>
<g mask="url(#mask1_4_95)">
<path d="M444.8 289L445.3 287.3C407.3 276.9 369.6 272.6 333.1 272.6C240.1 272.6 155.4 300.8 93.6 329.2C62.7 343.4 37.6 357.6 20.1 368.4C2.6 379.2 -7.40001 386.5 -7.90001 386.9L-6.90001 388.3L-5.5 387.3L-39.6 341.8L-41 342.8L-40 344.2C-37.6 342.4 21.1 298.8 111.6 263.5C164.9 242.7 218.3 229.1 270.3 223C291.3 220.5 312 219.3 332.5 219.3C376.1 219.3 418.5 224.9 459.1 235.9L459.6 234.2L457.9 233.7L443 288.5L444.8 289L446.5 289.5L461.4 234.7C461.5 234.3 461.5 233.8 461.2 233.4C461 233 460.6 232.7 460.1 232.6C419.2 221.5 376.5 215.9 332.6 215.9C312 215.9 291.1 217.1 270 219.6C217.7 225.7 164 239.4 110.5 260.3C19.6 295.8 -39.4 339.5 -41.9 341.5C-42.3 341.8 -42.5 342.2 -42.6 342.7C-42.7 343.2 -42.5 343.6 -42.3 344L-8.2 389.5C-7.6 390.3 -6.5 390.4 -5.7 389.9C-5.3 389.6 4.59999 382.3 22 371.6C74.3 339.5 194.8 276.4 333.2 276.4C369.3 276.4 406.7 280.7 444.4 291C444.8 291.1 445.3 291.1 445.7 290.8C446.1 290.6 446.4 290.2 446.5 289.7L444.8 289Z" fill="#946045"/>
</g>
<mask id="mask2_4_95" style="mask-type:luminance" maskUnits="userSpaceOnUse" x="103" y="189" width="269" height="112">
<path d="M103.2 256.5C103.2 256.5 145.6 275.9 194.1 300.9L371.6 293.4L367.7 189.5L195.6 192.5L103.2 256.5Z" fill="white"/>
</mask>
<g mask="url(#mask2_4_95)">
<path d="M-22.8 366.9C-22.8 366.9 -22.7 366.8 -22.3 366.6C-17.6 363.1 23.7 333.4 87.5 304.5C151.4 275.6 237.8 247.7 332.8 247.7C371.4 247.7 411.4 252.3 451.8 263.3C452.7 263.6 453.7 263 453.9 262.1C454.2 261.2 453.6 260.2 452.7 260C411.9 248.9 371.6 244.2 332.7 244.2C233.9 244.2 144.5 274.2 79.9 304.2C15.2 334.2 -24.8 364.1 -24.9 364.2C-25.7 364.8 -25.8 365.9 -25.3 366.6C-24.7 367.3 -23.6 367.5 -22.8 366.9Z" fill="#946045"/>
</g>
</g>
<mask id="mask3_4_95" style="mask-type:luminance" maskUnits="userSpaceOnUse" x="2" y="2" width="239" height="353">
<path d="M184.2 20.3C166 9 144.5 2.5 121.5 2.5C55.8 2.5 2.5 55.8 2.5 121.5V235.5C2.5 301.2 55.8 354.5 121.5 354.5C187.2 354.5 240.5 301.2 240.5 235.5V150.2" fill="white"/>
</mask>
<g mask="url(#mask3_4_95)">
<path d="M270.8 434.8L272.1 433.6C204.6 358.5 117.7 317.9 39.4 296C-38.9 274.1 -108.6 271 -141.9 271C-154.7 271 -162.1 271.5 -162.6 271.5L-162.5 273.2L-160.8 273.1L-164.7 216.4L-166.4 216.5L-166.3 218.2C-165.3 218.1 -156.2 217.5 -140.9 217.5C-111.2 217.5 -58 219.8 4.8 232.6C60.8 244 113.1 261.5 160.1 284.6C219.4 313.7 270.4 351.8 311.8 397.9L313.1 396.7L311.9 395.4L269.6 433.4L270.8 434.8L272 436.1L314.3 398.1C314.6 397.8 314.9 397.4 314.9 396.9C314.9 396.4 314.8 396 314.5 395.6C272.8 349.2 221.4 310.8 161.8 281.5C114.5 258.3 62 240.7 5.7 229.2C-57.6 216.4 -111 214.2 -140.9 214.2C-156.3 214.2 -165.5 214.8 -166.6 214.9C-167.6 215 -168.3 215.8 -168.2 216.8L-164.3 273.5C-164.3 274 -164.1 274.4 -163.7 274.7C-163.4 275 -162.9 275.2 -162.4 275.1C-162 275.1 -154.7 274.6 -141.9 274.6C-108.8 274.6 -39.4 277.7 38.5 299.4C116.4 321.1 202.6 361.5 269.5 436C269.8 436.3 270.2 436.6 270.7 436.6C271.2 436.6 271.6 436.5 272 436.2L270.8 434.8Z" fill="#946045"/>
</g>
<mask id="mask4_4_95" style="mask-type:luminance" maskUnits="userSpaceOnUse" x="2" y="2" width="239" height="353">
<path d="M184.2 20.3C166 9 144.5 2.5 121.5 2.5C55.8 2.5 2.5 55.8 2.5 121.5V235.5C2.5 301.2 55.8 354.5 121.5 354.5C187.2 354.5 240.5 301.2 240.5 235.5V150.2" fill="white"/>
</mask>
<g mask="url(#mask4_4_95)">
<path d="M-164.3 246.7C-164.3 246.7 -164.2 246.7 -163.9 246.7C-162.1 246.6 -154 246.1 -141 246.1C-105.4 246.1 -32.7 249.5 48.7 272.6C130.1 295.7 220.1 338.4 290.7 417C291.3 417.7 292.5 417.8 293.2 417.1C293.9 416.5 294 415.3 293.3 414.6C222 335.4 131.3 292.4 49.5 269.2C-32.3 246 -105.3 242.6 -141.1 242.6C-156 242.6 -164.5 243.2 -164.6 243.2C-165.6 243.3 -166.3 244.1 -166.2 245.1C-166.1 246 -165.3 246.7 -164.3 246.7Z" fill="#946045"/>
</g>
<path d="M185.5 18.2C166.9 6.7 145 0 121.5 0C54.4 0 0 54.4 0 121.5V235.5C0 302.6 54.4 357 121.5 357C188.6 357 243 302.6 243 235.5V150.2C243 148.8 241.9 147.7 240.5 147.7C239.1 147.7 238 148.8 238 150.2V235.5C238 267.7 225 296.8 203.9 317.9C182.8 339 153.7 352 121.5 352C89.3 352 60.2 339 39.1 317.9C18 296.8 5 267.6 5 235.5V121.5C5 89.3 18 60.2 39.1 39.1C60.2 18 89.3 5 121.5 5C144 5 165 11.4 182.8 22.5C184 23.2 185.5 22.9 186.2 21.7C187 20.4 186.7 18.9 185.5 18.2Z" fill="#946045"/>
<mask id="mask5_4_95" style="mask-type:luminance" maskUnits="userSpaceOnUse" x="41" y="120" width="161" height="142">
<path d="M201.1 231.7C201.1 231.7 159.4 239.9 116.8 261.7C116.8 261.7 71.6 246.4 41.8 239.4L42 159.3C42 159.3 77.5 119.1 78.5 124.3C79 126.8 153 114.6 170 124.8C195.5 140 201.1 160 201.1 160V231.7Z" fill="white"/>
</mask>
<g mask="url(#mask5_4_95)">
<path d="M108 269.9V271.7H197.4C197.9 271.7 198.3 271.5 198.6 271.2C198.9 270.9 199.1 270.4 199.1 270V161.4C199.1 160.9 198.9 160.5 198.6 160.2C198.3 159.9 197.8 159.7 197.4 159.7H108C107.5 159.7 107.1 159.9 106.8 160.2C106.5 160.5 106.3 161 106.3 161.4V269.9C106.3 270.4 106.5 270.8 106.8 271.1C107.1 271.4 107.6 271.6 108 271.6V269.9H109.8V163.2H195.7V268.2H108V269.9Z" fill="#946045"/>
</g>
<mask id="mask6_4_95" style="mask-type:luminance" maskUnits="userSpaceOnUse" x="41" y="120" width="161" height="142">
<path d="M201.1 231.7C201.1 231.7 159.4 239.9 116.8 261.7C116.8 261.7 71.6 246.4 41.8 239.4L42 159.3C42 159.3 77.5 119.1 78.5 124.3C79 126.8 153 114.6 170 124.8C195.5 140 201.1 160 201.1 160V231.7Z" fill="white"/>
</mask>
<g mask="url(#mask6_4_95)">
<path d="M108 161.4V163.2H197.5C198.2 163.2 198.8 162.8 199.1 162.2C199.4 161.6 199.3 160.8 198.8 160.3L168.4 127C168.1 126.6 167.6 126.4 167.1 126.4H77.6C76.9 126.4 76.3 126.8 76 127.4C75.7 128 75.8 128.8 76.3 129.3L106.7 162.6C107 163 107.5 163.2 108 163.2V161.4L109.3 160.2L81.6 129.8H166.3L193.5 159.6H108V161.4Z" fill="#946045"/>
</g>
<mask id="mask7_4_95" style="mask-type:luminance" maskUnits="userSpaceOnUse" x="41" y="120" width="161" height="142">
<path d="M201.1 231.7C201.1 231.7 159.4 239.9 116.8 261.7C116.8 261.7 71.6 246.4 41.8 239.4L42 159.3C42 159.3 77.5 119.1 78.5 124.3C79 126.8 153 114.6 170 124.8C195.5 140 201.1 160 201.1 160V231.7Z" fill="white"/>
</mask>
<g mask="url(#mask7_4_95)">
<path d="M44.3 161.9H42.5V269.9C42.5 270.4 42.7 270.8 43 271.1C43.3 271.4 43.8 271.6 44.2 271.6H108C108.5 271.6 108.9 271.4 109.2 271.1C109.5 270.8 109.7 270.3 109.7 269.9V161.9C109.7 161.5 109.5 161.1 109.3 160.7L78.9 126.9C78.6 126.5 78.1 126.3 77.6 126.3C77.1 126.3 76.7 126.5 76.3 126.8L43 160.6C42.7 160.9 42.5 161.4 42.5 161.8H44.3L45.5 163L77.5 130.6L106.2 162.5V268.1H46.1V161.9H44.3Z" fill="#946045"/>
</g>
<mask id="mask8_4_95" style="mask-type:luminance" maskUnits="userSpaceOnUse" x="41" y="120" width="161" height="142">
<path d="M201.1 231.7C201.1 231.7 159.4 239.9 116.8 261.7C116.8 261.7 71.6 246.4 41.8 239.4L42 159.3C42 159.3 77.5 119.1 78.5 124.3C79 126.8 153 114.6 170 124.8C195.5 140 201.1 160 201.1 160V231.7Z" fill="white"/>
</mask>
<g mask="url(#mask8_4_95)">
<path d="M168.6 218.9C168.6 217.4 168.8 215.7 168.2 214.4H137.9C137.3 215.7 137.6 218.4 137.6 219.9C137.6 224.5 141.1 228.6 144 230.2V235.8C141.4 237.4 137.5 241.3 137.6 246.8C137.6 248.3 137.4 250.3 137.9 251.6H168.2C168.8 250.3 169.1 248.8 169.1 247.3C169.1 242.7 166.1 238.9 162.1 235.8V230.2C165.4 228.8 168.6 223.5 168.6 218.9Z" fill="#946045"/>
</g>
<mask id="mask9_4_95" style="mask-type:luminance" maskUnits="userSpaceOnUse" x="41" y="120" width="161" height="142">
<path d="M201.1 231.7C201.1 231.7 159.4 239.9 116.8 261.7C116.8 261.7 71.6 246.4 41.8 239.4L42 159.3C42 159.3 77.5 119.1 78.5 124.3C79 126.8 153 114.6 170 124.8C195.5 140 201.1 160 201.1 160V231.7Z" fill="white"/>
</mask>
<g mask="url(#mask9_4_95)">
<path d="M168.6 218.9H170.4C170.4 218.4 170.4 217.7 170.4 217C170.4 216 170.3 214.8 169.9 213.6C169.6 213 169 212.5 168.3 212.5H138C137.3 212.5 136.7 212.9 136.4 213.6C136.1 214.2 136 214.9 136 215.5C135.9 216.1 135.9 216.8 135.9 217.4C135.9 218.3 135.9 219.3 135.9 219.9C135.9 222.7 136.9 225.2 138.3 227.2C139.7 229.2 141.5 230.8 143.2 231.7L144 230.2H142.2V235.8H144L143.1 234.3C141.6 235.2 139.9 236.7 138.4 238.7C136.9 240.7 135.8 243.4 135.8 246.5V246.8V247.1C135.8 247.6 135.8 248.3 135.8 249C135.8 250 135.8 251.1 136.3 252.3C136.6 252.9 137.2 253.4 137.9 253.4H168.2C168.9 253.4 169.5 253 169.8 252.3C170.5 250.8 170.8 249.1 170.8 247.3C170.8 244.6 169.9 242.1 168.5 240C167.1 237.9 165.2 236 163.1 234.4L162 235.8H163.8V230.2H162L162.7 231.8C163.8 231.3 164.8 230.6 165.6 229.7C166.9 228.4 168 226.7 168.9 224.8C169.7 222.9 170.2 220.9 170.2 218.9H168.6H166.8C166.8 220.8 166.1 223 165 224.9C164.5 225.8 163.8 226.6 163.2 227.3C162.6 227.9 161.9 228.4 161.4 228.6C160.7 228.9 160.3 229.5 160.3 230.2V235.8C160.3 236.3 160.5 236.9 161 237.2C162.9 238.7 164.5 240.2 165.6 241.9C166.7 243.6 167.3 245.3 167.3 247.3C167.3 248.6 167 249.8 166.6 250.9L168.2 251.6V249.8H137.9V251.6L139.5 250.9C139.4 250.6 139.3 249.9 139.3 249C139.3 248.4 139.3 247.7 139.3 247.1C139.3 247 139.3 246.9 139.3 246.8V246.6C139.3 244.3 140.1 242.4 141.2 240.8C142.3 239.2 143.8 238 144.9 237.3C145.4 237 145.7 236.4 145.7 235.8V230.2C145.7 229.6 145.3 229 144.8 228.7C143.6 228.1 142.2 226.8 141.1 225.3C140 223.7 139.3 221.9 139.3 220C139.3 219.3 139.3 218.4 139.3 217.5C139.3 217 139.3 216.4 139.4 216C139.4 215.6 139.5 215.2 139.6 215.1L138 214.4V216.2H168.3V214.4L166.7 215.1C166.9 215.5 167 216.2 167 217.1C167 217.7 167 218.3 167 219H168.6V218.9Z" fill="#946045"/>
</g>
<mask id="mask10_4_95" style="mask-type:luminance" maskUnits="userSpaceOnUse" x="41" y="120" width="161" height="142">
<path d="M201.1 231.7C201.1 231.7 159.4 239.9 116.8 261.7C116.8 261.7 71.6 246.4 41.8 239.4L42 159.3C42 159.3 77.5 119.1 78.5 124.3C79 126.8 153 114.6 170 124.8C195.5 140 201.1 160 201.1 160V231.7Z" fill="white"/>
</mask>
<g mask="url(#mask10_4_95)">
<path d="M132.9 216.1H173.8C174.8 216.1 175.6 215.3 175.6 214.3C175.6 213.3 174.8 212.5 173.8 212.5H132.9C131.9 212.5 131.1 213.3 131.1 214.3C131.1 215.3 131.9 216.1 132.9 216.1Z" fill="#946045"/>
</g>
<mask id="mask11_4_95" style="mask-type:luminance" maskUnits="userSpaceOnUse" x="41" y="120" width="161" height="142">
<path d="M201.1 231.7C201.1 231.7 159.4 239.9 116.8 261.7C116.8 261.7 71.6 246.4 41.8 239.4L42 159.3C42 159.3 77.5 119.1 78.5 124.3C79 126.8 153 114.6 170 124.8C195.5 140 201.1 160 201.1 160V231.7Z" fill="white"/>
</mask>
<g mask="url(#mask11_4_95)">
<path d="M163.1 214.2L164.8 214.5L167.4 200.9C167.5 200.6 167.5 200.3 167.5 200C167.5 198.9 167.1 197.9 166.5 197.1C165.9 196.3 164.9 195.7 163.8 195.5C163.5 195.4 163.2 195.4 162.9 195.4C161.8 195.4 160.8 195.8 160 196.4C159.2 197.1 158.6 198 158.4 199.1L155.6 213.8C155.5 214.3 155.6 214.8 156 215.2C156.3 215.6 156.8 215.8 157.3 215.8H163C163.8 215.8 164.6 215.2 164.7 214.4L163.1 214.2V212.4H159.5L161.9 199.8C162 199.5 162.1 199.3 162.3 199.2C162.5 199 162.7 199 163 199H163.2C163.5 199.1 163.7 199.2 163.8 199.4C164 199.6 164 199.8 164 200.1V200.3L161.4 213.9L163.1 214.2Z" fill="#946045"/>
</g>
<mask id="mask12_4_95" style="mask-type:luminance" maskUnits="userSpaceOnUse" x="41" y="120" width="161" height="142">
<path d="M201.1 231.7C201.1 231.7 159.4 239.9 116.8 261.7C116.8 261.7 71.6 246.4 41.8 239.4L42 159.3C42 159.3 77.5 119.1 78.5 124.3C79 126.8 153 114.6 170 124.8C195.5 140 201.1 160 201.1 160V231.7Z" fill="white"/>
</mask>
<g mask="url(#mask12_4_95)">
<path d="M73.9 183.2V185C77 185 79.8 186.3 81.9 188.4C84 190.5 85.2 193.3 85.2 196.5V249.7H62.5V196.5C62.5 193.3 63.8 190.5 65.8 188.4C67.9 186.3 70.7 185 73.8 185V183.2V181.4C69.7 181.4 66 183.1 63.3 185.8C60.6 188.5 59 192.3 59 196.4V251.4C59 251.9 59.2 252.3 59.5 252.6C59.8 252.9 60.3 253.1 60.7 253.1H86.9C87.4 253.1 87.8 252.9 88.1 252.6C88.4 252.3 88.6 251.8 88.6 251.4V196.4C88.6 192.3 86.9 188.5 84.3 185.8C81.6 183.1 77.9 181.4 73.8 181.4V183.2H73.9Z" fill="#946045"/>
</g>
<path d="M62.7 71.4L62.4 69.7C62.3 69.7 59.4 70.2 56.3 72C54.8 72.9 53.2 74.2 52 76C50.8 77.8 50 80.2 50 83C50 83.5 50 84.1 50.1 84.7L51.8 84.5H50C50 84.6 50 85.3 50.3 86.4C50.7 88 51.7 90.4 54.1 92.4C55.3 93.4 56.8 94.3 58.7 94.9C60.6 95.5 62.9 95.9 65.6 95.9C65.9 95.9 66.1 95.9 66.4 95.9V94.2V96H97.6C97.7 96 101.5 96 105.5 94.2C107.5 93.3 109.6 91.9 111.2 89.8C112.8 87.7 114 84.8 114.1 81.3L112.4 81.2L114.1 81.5C114.1 81.4 114.3 80.4 114.3 78.8C114.3 76.6 114 73.3 112.1 70.1C111.2 68.5 109.9 67 108.2 65.7C106.4 64.4 104.2 63.5 101.5 62.9H101.3L95.2 62.4L95 64.1L96.6 63.3C96.5 63.2 95.5 61.1 93.2 58.9C90.9 56.7 87.2 54.5 82.1 54.2L82 55.9L82.2 54.2C82.1 54.2 81.5 54.1 80.4 54.1C78.6 54.1 75.7 54.3 72.7 55.5C69.6 56.6 66.4 58.8 64.2 62.6C64.2 62.6 63.5 63.7 62.8 65.3C62.1 66.9 61.2 69 60.8 71.2L62.7 71.4L64.4 71.7C64.7 70 65.4 68.1 66.1 66.7C66.4 66 66.7 65.4 67 65C67.1 64.8 67.2 64.6 67.3 64.5L67.4 64.4C69.1 61.4 71.6 59.8 74.1 58.8C76.6 57.9 79.1 57.7 80.6 57.7C81 57.7 81.4 57.7 81.6 57.7C81.7 57.7 81.8 57.7 81.9 57.7H82H82.1C86.3 57.9 89.1 59.7 91 61.5C91.9 62.4 92.6 63.2 93 63.9C93.2 64.2 93.4 64.5 93.5 64.6L93.6 64.8C93.9 65.4 94.4 65.7 95 65.8L101.1 66.3L101.3 64.6L100.9 66.3C103.2 66.8 104.9 67.6 106.3 68.5C108.3 69.9 109.4 71.7 110.1 73.6C110.8 75.5 110.9 77.3 110.9 78.7C110.9 79.4 110.9 79.9 110.8 80.3C110.8 80.5 110.8 80.6 110.8 80.7V80.8V81C110.7 83.9 109.8 86 108.6 87.5C107.7 88.7 106.6 89.5 105.4 90.2C103.6 91.2 101.7 91.8 100.2 92C99.5 92.1 98.8 92.2 98.4 92.2C98.2 92.2 98 92.2 97.9 92.2H97.8H66.6C66.4 92.2 66.1 92.2 65.9 92.2C62.7 92.2 60.3 91.6 58.7 90.9C56.2 89.7 55 88.1 54.4 86.7C54.1 86 53.9 85.4 53.8 84.9C53.8 84.7 53.7 84.5 53.7 84.4V84.3V84.2C53.7 83.7 53.6 83.3 53.6 82.9C53.6 80.7 54.2 79.1 55 77.9C56.3 76 58.2 74.7 60 74C60.9 73.6 61.6 73.4 62.2 73.3C62.5 73.2 62.7 73.2 62.8 73.2H63C63.7 73.1 64.3 72.5 64.5 71.8L62.7 71.4Z" fill="#946045"/>
</svg>
